<?xml version="1.0" encoding="UTF-8" standalone="no"?><svg xmlns:rdf="http://www.w3.org/1999/02/22-rdf-syntax-ns#" xmlns="http://www.w3.org/2000/svg" height="296.96962" width="223.96742" version="1.1" xmlns:cc="http://creativecommons.org/ns#" xmlns:dc="http://purl.org/dc/elements/1.1/" viewBox="0 0 223.96742 296.96962"><defs><style>.cls-1{fill:#ce1141;}</style></defs><title>Houston Rockets</title><path d="M150.40323,137.95282l.31914-26.56928c0-12.44688-13.00538-14.52135-22.5799-14.44157,6.383-2.15426,14.12241-5.7447,19.70755-11.80857,5.90427-5.42556,10.05323-13.08517,9.33515-23.77671-1.19682-18.032-23.77672-26.96822-61.11733-23.37778a14.24337,14.24337,0,0,1-1.83512.15957A192.65136,192.65136,0,0,0,85.61566,0L83.78054,1.83511a250.88827,250.88827,0,0,0-9.65431,39.09594,297.29789,297.29789,0,0,0-37.89912,8.93621L34.392,51.70238S52.424,50.10663,72.92942,50.346c-2.31384,23.37778.07979,45.55874,0,87.44724-33.19165-.95745-62.31414,4.54789-69.41524,13.48411-2.31384,1.91489-3.59044,4.06917-3.51065,6.30321.39894,10.133,30.55865,19.46818,72.92589,23.05862l1.83512,57.60668,1.83511-1.83511,2.95214-39.09594a5.30448,5.30448,0,0,1,.23937-1.67554c.87767.15959,1.75532,1.27661,1.75532,3.2713l1.27661,51.463,1.83512-1.8351,3.1915-41.8885a9.36352,9.36352,0,0,1,.23937-2.31384c.87767.15959,1.75532,1.43617,1.67554,3.8298L91.2008,261.7832l1.83512-1.83511,2.5532-78.0323c4.86705.15957,9.81388.23937,14.92029.23937q8.01864,0,15.798-.23937l2.5532,81.38339,1.83512-1.83511,2.15426-42.60658a8.02921,8.02921,0,0,1,.23937-2.15428c.79787.15959,1.59575,1.43617,1.59575,3.67024l2.234,59.76092,1.83512-1.8351,2.23406-51.62258a5.83087,5.83087,0,0,1,.31914-1.83511c1.03724,0,2.15427,1.27661,2.15427,3.75l1.83511,68.378,1.83512-1.83511,2.71278-114.575c36.22358-3.19151,63.75031-10.45219,70.612-18.90967,2.234-1.9149,3.51065-3.90959,3.51065-5.90428-.4787-11.01076-34.0693-19.62782-73.56416-17.79271M72.6103,168.67105c-29.0427-2.79256-48.67045-8.69684-48.67045-16.11709a3.07894,3.07894,0,0,1,.47872-1.59576c6.782-4.78725,27.68631-7.81919,48.59066-10.9309,0,8.21813-.15957,17.15434-.39893,26.96822ZM131.81271,68.61738c1.117,8.21813-1.27661,14.44156-5.50534,19.149-7.57982,6.86174-19.46818,9.97345-29.12248,11.40963.15957-15.4788-.0798-31.5959-1.43618-47.39385,18.6703,1.99469,34.70761,6.70216,36.064,16.83519m-5.50534,101.64943c-4.54789.15957-9.17558.23936-13.96283.23936-5.58514,0-11.09048-.07979-16.35647-.31914l.23937-6.62238c-.47873-16.7554.55851-37.81933.87767-60.31945,13.64368,1.59575,30.00014,5.42556,29.76078,15.00008Zm72.28759-12.9256c-6.78195,5.34577-24.73416,9.49473-48.51088,11.56921l.31915-28.564c27.20757,3.51065,49.30875,7.5,49.30875,14.04262a5.05349,5.05349,0,0,1-1.117,2.95214"/><path class="cls-1" d="M223.96742,155.905c-.47873-11.17026-34.06933-19.78733-73.56419-17.87242l.31914-26.56928c-.07979-16.43626-22.5799-14.8405-30.15972-13.80326,8.85643-1.59575,38.45765-9.016,36.62252-36.1438-1.19682-18.032-23.77672-26.96821-61.11733-23.37777a14.24515,14.24515,0,0,1-1.83512.15957A192.65146,192.65146,0,0,0,85.61566.15958c-5.1862,16.11711-8.21813,28.80334-9.89366,40.61191a287.95349,287.95349,0,0,0-39.49488,9.25536s18.032-1.59575,38.53743-1.35638c-2.31384,23.69692.07979,46.197,0,89.36214C35.509,136.67622,1.43972,144.256,1.83866,155.905c.31915,10.133,30.55865,19.46818,72.92589,23.05862l1.83512,57.60668,2.95213-39.09594c.0798-4.86705,3.75-4.38832,3.75-.23935l1.35639,51.463,3.1915-41.8885c-.07979-5.66492,3.90959-5.34578,3.75-.31914l1.43618,53.61726,2.5532-79.94719c5.42556.15957,11.01069.31914,16.67561.31914q8.01866,0,15.798-.23936l2.5532,81.38337,2.15427-42.60658c0-5.42555,3.67023-5.1862,3.67023-.31915l2.23406,59.76093,2.234-51.6226c.15958-5.10641,4.22875-4.86705,4.30853,0l1.83512,68.378,2.71277-116.17079v-.07979c43.08534-3.59043,74.20252-12.92558,74.20252-23.05862M133.64783,66.78226c3.03193,22.50011-19.94691,29.92036-36.46294,32.39377A490.15451,490.15451,0,0,0,95.58913,49.7077c19.46818,1.91491,36.62252,6.5426,38.0587,17.07456M23.93985,152.554c0-6.86175,25.45225-10.532,50.9045-14.36178,0,8.21813-.15957,17.15434-.39894,26.96822l.0798,3.75c-30.15973-2.79257-50.58536-8.77664-50.58536-16.35646M95.98807,170.187l.23937-6.62238c-.47873-17.31391.6383-39.09594.87767-62.31414,13.883,1.43618,31.83527,5.1862,31.51611,15.23944l-.47873,53.77686q-7.65962.23936-15.798.23936c-5.58514-.07978-11.0107-.15957-16.35647-.31914m54.096-1.27661L150.483,138.272c28.00546,3.59045,51.06408,7.65962,51.06408,14.282,0,7.57984-21.06393,13.6437-51.463,16.35648"/></svg>